<svg width="1440" height="940" viewBox="0 0 1440 940" fill="none" xmlns="http://www.w3.org/2000/svg">
  <rect width="1440" height="940" fill="#120C0A"/>
  <rect x="36" y="36" width="1368" height="868" rx="28" fill="url(#bg)" stroke="#3A2A23"/>

  <text x="72" y="96" fill="#D7AC72" font-size="16" font-family="Inter, Arial, sans-serif" letter-spacing="2">PERFORMANCE</text>
  <text x="72" y="146" fill="#F8ECD6" font-size="38" font-weight="700" font-family="Inter, Arial, sans-serif">Performance and traffic views</text>
  <text x="72" y="192" fill="#F8ECD6" font-size="38" font-weight="700" font-family="Inter, Arial, sans-serif">with rolling history</text>
  <text x="72" y="234" fill="#E5D3B7" font-size="20" font-family="Inter, Arial, sans-serif">Time windows and threshold lines</text>
  <text x="72" y="266" fill="#E5D3B7" font-size="20" font-family="Inter, Arial, sans-serif">for CPU, memory, and network</text>
  <text x="72" y="298" fill="#E5D3B7" font-size="20" font-family="Inter, Arial, sans-serif">movement.</text>

  <rect x="72" y="324" width="620" height="498" rx="26" fill="#241914" stroke="#3C2B24"/>
  <rect x="748" y="324" width="620" height="498" rx="26" fill="#241914" stroke="#3C2B24"/>

  <text x="108" y="374" fill="#D7AC72" font-size="15" font-family="Inter, Arial, sans-serif" letter-spacing="1.5">CPU + MEMORY</text>
  <text x="108" y="412" fill="#F8ECD6" font-size="28" font-weight="700" font-family="Inter, Arial, sans-serif">Load trends with readable</text>
  <text x="108" y="448" fill="#F8ECD6" font-size="28" font-weight="700" font-family="Inter, Arial, sans-serif">thresholds</text>
  <text x="108" y="484" fill="#E5D3B7" font-size="17" font-family="Inter, Arial, sans-serif">CPU area plus memory line,</text>
  <text x="108" y="512" fill="#E5D3B7" font-size="17" font-family="Inter, Arial, sans-serif">with 70% and 85% bands.</text>

  <line x1="122" y1="700" x2="640" y2="700" stroke="#4A3A31" stroke-width="2"/>
  <line x1="122" y1="620" x2="640" y2="620" stroke="#5A4335" stroke-width="1.5" stroke-dasharray="7 7"/>
  <line x1="122" y1="540" x2="640" y2="540" stroke="#6A4738" stroke-width="1.5" stroke-dasharray="7 7"/>
  <path d="M122 676 C170 628, 226 582, 282 600 C336 618, 390 494, 444 514 C494 532, 546 456, 640 480" stroke="#F59E0B" stroke-width="4" fill="none"/>
  <path d="M122 612 C178 614, 228 602, 282 590 C334 580, 390 570, 444 560 C494 552, 552 540, 640 530" stroke="#F5E6C8" stroke-width="4" fill="none"/>
  <path d="M122 676 C170 628, 226 582, 282 600 C336 618, 390 494, 444 514 C494 532, 546 456, 640 480 L640 700 L122 700 Z" fill="url(#cpuFill)"/>

  <text x="122" y="746" fill="#CDBCA3" font-size="16" font-family="Inter, Arial, sans-serif">00:00</text>
  <text x="286" y="746" fill="#CDBCA3" font-size="16" font-family="Inter, Arial, sans-serif">00:08</text>
  <text x="448" y="746" fill="#CDBCA3" font-size="16" font-family="Inter, Arial, sans-serif">00:16</text>
  <text x="602" y="746" fill="#CDBCA3" font-size="16" font-family="Inter, Arial, sans-serif">00:24</text>

  <rect x="108" y="774" width="168" height="34" rx="17" fill="#2D241E"/>
  <rect x="292" y="774" width="154" height="34" rx="17" fill="#2D241E"/>
  <text x="138" y="796" fill="#E5D3B7" font-size="15" font-family="Inter, Arial, sans-serif">Observe at 70%</text>
  <text x="322" y="796" fill="#E5D3B7" font-size="15" font-family="Inter, Arial, sans-serif">Hot at 85%</text>

  <text x="784" y="374" fill="#D7AC72" font-size="15" font-family="Inter, Arial, sans-serif" letter-spacing="1.5">NETWORK</text>
  <text x="784" y="412" fill="#F8ECD6" font-size="28" font-weight="700" font-family="Inter, Arial, sans-serif">Traffic direction and</text>
  <text x="784" y="448" fill="#F8ECD6" font-size="28" font-weight="700" font-family="Inter, Arial, sans-serif">peak visibility</text>
  <text x="784" y="484" fill="#E5D3B7" font-size="17" font-family="Inter, Arial, sans-serif">Download and upload activity</text>
  <text x="784" y="512" fill="#E5D3B7" font-size="17" font-family="Inter, Arial, sans-serif">to spot spikes and drift.</text>

  <line x1="798" y1="700" x2="1316" y2="700" stroke="#4A3A31" stroke-width="2"/>
  <line x1="798" y1="620" x2="1316" y2="620" stroke="#4A3A31" stroke-width="1.5" stroke-dasharray="7 7"/>
  <line x1="798" y1="540" x2="1316" y2="540" stroke="#4A3A31" stroke-width="1.5" stroke-dasharray="7 7"/>
  <path d="M798 666 C860 644, 910 596, 964 620 C1018 642, 1064 552, 1120 576 C1178 602, 1228 524, 1316 548" stroke="#7DD3FC" stroke-width="4" fill="none"/>
  <path d="M798 686 C860 678, 910 662, 964 670 C1018 678, 1064 636, 1120 648 C1178 660, 1228 622, 1316 634" stroke="#C084FC" stroke-width="4" fill="none"/>

  <rect x="784" y="774" width="204" height="34" rx="17" fill="#2D241E"/>
  <rect x="1004" y="774" width="188" height="34" rx="17" fill="#2D241E"/>
  <text x="816" y="796" fill="#E5D3B7" font-size="15" font-family="Inter, Arial, sans-serif">Peak download: 2.41 MB/s</text>
  <text x="1036" y="796" fill="#E5D3B7" font-size="15" font-family="Inter, Arial, sans-serif">Peak upload: 540 KB/s</text>

  <defs>
    <linearGradient id="bg" x1="720" y1="36" x2="720" y2="904" gradientUnits="userSpaceOnUse">
      <stop stop-color="#1A120E"/>
      <stop offset="1" stop-color="#130D0B"/>
    </linearGradient>
    <linearGradient id="cpuFill" x1="381" y1="480" x2="381" y2="700" gradientUnits="userSpaceOnUse">
      <stop stop-color="#F59E0B" stop-opacity="0.35"/>
      <stop offset="1" stop-color="#F59E0B" stop-opacity="0.03"/>
    </linearGradient>
  </defs>
</svg>
